#!OML:ASF Y:\EmotionMaleHayes\Project 1\Capture day 1\Session 1\Male1.ASF
:FULLY-SPECIFIED
:DEGREES
289
root 28.2576 16.7759 -1.7704 -293.438 81.3077 -285.282
lowerback 17.1834 0.248166 -7.32735
upperback 6.89503 -0.435792 -0.0973138
thorax -2.14161 -0.153823 4.12024
lowerneck -22.8848 1.66384 4.56164
upperneck 24.9459 1.8556 -3.3785
head 12.095 0.87776 -1.71135
rclavicle -8.74653e-015 -3.02153e-014
rhumerus -76.9572 22.4289 -76.1529
rradius 55.3774
rwrist -14.8707
rhand -32.1815 -30.7445
rfingers 7.12502
rthumb -5.424 -60.6551
lclavicle -8.74653e-015 -3.02153e-014
lhumerus -22.7906 -30.0755 56.3089
lradius 92.9594
lwrist 26.1085
lhand -27.5132 -26.0346
lfingers 7.12502
lthumb -0.915752 3.94316
rfemur -35.594 -0.295765 6.39056
rtibia 42.0344
rfoot -358.781 7.91105
rtoes 21.6084
lfemur -0.0675529 5.9143 -36.4576
ltibia 44.7042
lfoot 351.487 -5.5154
ltoes 6.56965
290
root 28.5474 16.9056 -1.76684 -294.775 80.604 -285.41
lowerback 17.0794 0.446968 -8.11574
upperback 6.68173 -0.32554 -0.413258
thorax -2.31477 -0.0987258 4.20951
lowerneck -22.7431 1.64337 4.32153
upperneck 25.6113 1.85106 -3.0067
head 12.3219 0.917163 -1.53605
rclavicle -6.36111e-015 -1.11319e-014
rhumerus -78.9171 23.0789 -77.541
rradius 55.5206
rwrist -15.2931
rhand -32.3231 -30.6067
rfingers 7.12502
rthumb -5.56069 -60.5138
lclavicle -6.36111e-015 -1.11319e-014
lhumerus -21.4215 -31.8165 55.2887
lradius 94.1156
lwrist 25.8643
lhand -27.6121 -26.757
lfingers 7.12502
lthumb -1.01124 3.22031
rfemur -33.1011 0.628374 6.54372
rtibia 39.3586
rfoot -358.61 9.74722
rtoes 16.6237
lfemur 1.49242 7.35995 -36.2029
ltibia 45.2491
lfoot 355.405 -6.12567
ltoes 6.38872
291
root 28.8311 17.0317 -1.76345 -296.04 79.9643 -285.515
lowerback 16.9729 0.653617 -8.81795
upperback 6.52884 -0.182459 -0.73721
thorax -2.42921 -0.0260154 4.23369
lowerneck -22.9369 1.65879 4.01529
upperneck 26.3364 1.82254 -2.37978
head 12.6387 0.97114 -1.25369
rclavicle 6.65929e-015 -3.18055e-015
rhumerus -80.5844 23.4599 -78.9543
rradius 55.7124
rwrist -15.6508
rhand -32.3524 -30.5701
rfingers 7.12502
rthumb -5.58896 -60.4764
lclavicle 6.65929e-015 -3.18055e-015
lhumerus -19.6894 -33.1402 54.0591
lradius 95.0797
lwrist 24.5114
lhand -27.2725 -27.0366
lfingers 7.12502
lthumb -0.683317 2.94201
rfemur -30.5926 1.46847 6.77135
rtibia 36.8981
rfoot -358.762 9.807
rtoes 20.7847
lfemur 2.79474 8.74012 -35.7262
ltibia 45.8375
lfoot 359.757 -6.36648
ltoes 11.6827
292
root 29.1161 17.1507 -1.7528 -296.679 79.3474 -284.985
lowerback 16.8614 0.902706 -9.55414
upperback 6.3675 0.0132146 -1.05283
thorax -2.55808 0.0750723 4.27459
lowerneck -23.1023 1.56239 3.60616
upperneck 27.0239 1.64994 -1.68983
head 12.9332 0.961597 -0.950124
rclavicle 7.85199e-015 6.36111e-015
rhumerus -82.0831 23.6153 -80.3816
rradius 55.7713
rwrist -16.0765
rhand -32.2192 -30.4022
rfingers 7.12502
rthumb -5.46042 -60.3119
lclavicle 7.85199e-015 6.36111e-015
lhumerus -17.9289 -34.627 52.9994
lradius 95.9113
lwrist 24.0291
lhand -26.6629 -27.6877
lfingers 7.12502
lthumb -0.0945221 2.29204
rfemur -27.8262 2.25302 6.9485
rtibia 34.2121
rfoot -357.923 9.30482
rtoes 21.3408
lfemur 4.00658 9.96516 -35.138
ltibia 46.4946
lfoot 363.767 -6.14132
ltoes 17.6795
293
root 29.4042 17.2676 -1.73887 -296.506 78.6775 -283.719
lowerback 16.6985 1.16095 -10.4411
upperback 6.12789 0.195826 -1.3425
thorax -2.74222 0.173066 4.42837
lowerneck -23.1544 1.42336 3.21302
upperneck 27.6667 1.49218 -1.2498
head 13.195 0.927114 -0.74022
rclavicle -2.8128e-014 -4.05521e-014
rhumerus -83.3969 23.7013 -81.7499
rradius 55.5964
rwrist -16.4271
rhand -32.1138 -29.7528
rfingers 7.12502
rthumb -5.35864 -59.665
lclavicle -2.8128e-014 -4.05521e-014
lhumerus -16.3273 -35.958 52.2142
lradius 96.5706
lwrist 23.235
lhand -25.951 -28.1922
lfingers 7.12502
lthumb 0.593115 1.78667
rfemur -25.2974 2.81909 6.98293
rtibia 32.7604
rfoot -358.459 8.69448
rtoes 19.1044
lfemur 5.09473 10.922 -34.6717
ltibia 47.1649
lfoot 366.761 -6.60272
ltoes 17.7082
294
root 29.6843 17.3783 -1.71859 -297.542 78.5508 -283.808
lowerback 16.5543 1.36468 -10.8763
upperback 5.83711 0.371328 -1.41494
thorax -3.00161 0.272557 4.56113
lowerneck -23.2408 1.29965 2.86259
upperneck 28.2395 1.40448 -1.02918
head 13.4436 0.89466 -0.608815
rclavicle 7.40473e-015 3.1408e-014
rhumerus -84.4059 23.7169 -82.7874
rradius 55.5025
rwrist -16.3815
rhand -31.4977 -28.8765
rfingers 7.12502
rthumb -4.76371 -58.8029
lclavicle 7.40473e-015 3.1408e-014
lhumerus -15.0648 -37.0475 51.7024
lradius 97.2236
lwrist 22.3423
lhand -25.5073 -28.3818
lfingers 7.12502
lthumb 1.02158 1.59551
rfemur -22.6956 3.34107 7.77145
rtibia 31.0529
rfoot -358.699 7.43753
rtoes 17.0918
lfemur 5.96485 11.7573 -33.4736
ltibia 47.9334
lfoot 368.401 -7.92868
ltoes 14.7826
295
root 29.9652 17.4749 -1.69056 -298.883 78.7994 -284.24
lowerback 16.3787 1.54492 -11.0188
upperback 5.59546 0.575168 -1.34086
thorax -3.20202 0.382525 4.68139
lowerneck -23.3415 1.23985 2.55358
upperneck 28.7258 1.39098 -0.815255
head 13.6646 0.895817 -0.472178
rclavicle -6.75868e-015 -1.55052e-014
rhumerus -85.0931 23.5019 -83.3339
rradius 55.4992
rwrist -15.8082
rhand -30.0896 -27.6222
rfingers 7.12502
rthumb -3.40401 -57.5748
lclavicle -6.75868e-015 -1.55052e-014
lhumerus -13.8983 -38.0059 51.4148
lradius 97.8914
lwrist 21.5383
lhand -25.2373 -28.333
lfingers 7.12502
lthumb 1.28238 1.64293
rfemur -19.9902 3.67507 8.99044
rtibia 29.5644
rfoot -359.203 6.0642
rtoes 16.3151
lfemur 6.73023 12.5651 -31.8136
ltibia 48.9231
lfoot 367.514 -8.61253
ltoes 7.69151
